# xmcd
#
# Track frame offsets:
#	150
#	10394
#	20206
#	28149
#	44342
#	53150
#	68300
#	80391
#	90942
#	102904
#	115735
#	126125
#	136072
#	147093
#	159097
#	173189
#	184284
#	197200
#
# Disc length: 2740 seconds
#
# Revision: 1
# Processed by: cddbd v1.5.2PL0 Copyright (c) Steve Scherf et al.
# Submitted via: EasyCDDAExtractor 2010.6.0.0
#
DISCID=e70ab212
DTITLE=Florian Silbereisen - So Begann Es
DYEAR=1900
DGENRE=Folklore
TTITLE0=Flori Seiner (1991)
TTITLE1=Französische Grüsse (1991)
TTITLE2=Knödel Polka (1991)
TTITLE3=Mama I Möcht Dich Auf Händen Tragen (1994)
TTITLE4=Lustige Harmonika (1991)
TTITLE5=I Bin Der Schönst' (1994)
TTITLE6=Zillertaler Hochzeitsmarsch (1991)
TTITLE7=Mia San Vom Woid Dahoam (1991)
TTITLE8=Musi Macht Spass (1992)
TTITLE9=I Möcht Mei Lebtag A Lausbua Bleib'n (1993)
TTITLE10=Fidele Harmonika (Löffelpolka 1993)
TTITLE11=Schön Gmüatlich (1991)
TTITLE12=Rund Um Passau (1994)
TTITLE13=In Meiner Hosentasch'n (Polkalied 1993)
TTITLE14=Stadl Polka (1991)
TTITLE15=Silberlöffel Polka (1993)
TTITLE16=Mein Allerbester Freund Ist Die Ziehharmonika (1994)
TTITLE17=Ziach Polka (1994)
EXTD=
EXTT0=
EXTT1=
EXTT2=
EXTT3=
EXTT4=
EXTT5=
EXTT6=
EXTT7=
EXTT8=
EXTT9=
EXTT10=
EXTT11=
EXTT12=
EXTT13=
EXTT14=
EXTT15=
EXTT16=
EXTT17=
PLAYORDER=
